<svg width="71" height="74" viewBox="0 0 71 74" fill="none" xmlns="http://www.w3.org/2000/svg">
<path d="M1 61.0222V1H44.3108C46.9986 1 49.1775 3.17888 49.1775 5.86667V5.86667M1 61.0222H6.30769M1 61.0222V61.2944C1 64.0559 3.23858 66.2944 6 66.2944H6.30769M49.1775 5.86667V56.0222C49.1775 58.7836 46.9389 61.0222 44.1775 61.0222H16.9231M49.1775 5.86667H49.8935C52.6549 5.86667 54.8935 8.10524 54.8935 10.8667V61.2944C54.8935 64.0559 52.6549 66.2944 49.8935 66.2944H16.9231M16.9231 66.2944V61.0222M16.9231 66.2944V71.5972C16.9231 72.4865 15.8493 72.9334 15.2183 72.3067L11.6154 68.7278L8.01243 72.3067C7.3815 72.9334 6.30769 72.4865 6.30769 71.5972V66.2944M16.9231 61.0222H6.30769M6.30769 61.0222V66.2944M61.426 58.5889L66.3254 66.2944L70 58.5889M61.426 58.5889V17.6278M61.426 58.5889H70M70 58.5889V17.6278M61.426 14.3833V10.1536C61.426 7.78601 63.3454 5.86667 65.713 5.86667V5.86667C68.0807 5.86667 70 7.78602 70 10.1537V14.3833M61.426 14.3833H70M61.426 14.3833V17.6278M70 14.3833V17.6278M70 17.6278H61.426M10.9822 17.6278H41.2367C41.789 17.6278 42.2367 17.1801 42.2367 16.6278V11.3278C42.2367 10.7755 41.789 10.3278 41.2367 10.3278H10.9822C10.43 10.3278 9.98225 10.7755 9.98225 11.3278V16.6278C9.98225 17.1801 10.43 17.6278 10.9822 17.6278Z" stroke="#F83737" stroke-width="2"/>
</svg>
