<svg width="64" height="76" viewBox="0 0 64 76" fill="none" xmlns="http://www.w3.org/2000/svg">
<path d="M10.5036 12.2805H6C3.23858 12.2805 1 14.5191 1 17.2805V70C1 72.7614 3.23858 75 6 75H48.4963C51.2578 75 53.4963 72.7614 53.4963 70V63.7195M10.5036 12.2805H48.4963C51.2578 12.2805 53.4963 14.5191 53.4963 17.2805V63.7195M10.5036 12.2805V6C10.5036 3.23858 12.7422 1 15.5036 1H58C60.7614 1 63 3.23858 63 6V58.7195C63 61.4809 60.7614 63.7195 58 63.7195H53.4963M30.8686 20.4024H45.8029M8.24088 31.6829H45.8029M8.24088 37.5488H45.8029M8.24088 42.9634H45.8029" stroke="#F83737" stroke-width="2"/>
</svg>
