<svg width="66" height="86" viewBox="0 0 66 86" fill="none" xmlns="http://www.w3.org/2000/svg">
<path d="M7.22171 60.679C2.12476 50.2424 0.312477 25.8079 1.22781 14L32.6219 2L64.2266 14C65.2563 25.3537 64.2695 49.507 59.0521 60.679C53.8347 71.8511 39.2581 81.548 32.6219 84.5L32.414 84.3833C26.2691 80.933 13.6539 73.8497 7.22171 60.679Z" stroke="#F83737" stroke-width="2"/>
<path d="M17.8287 54.3035C20.035 59.1092 24.6203 60.4113 27.7969 60.4955C28.6159 60.5172 28.9537 59.559 28.3923 58.9623C27.7107 58.2377 26.8748 57.324 26.0137 56.3293C25.1277 55.3058 24.4681 54.1042 24.0134 53.0566C23.6681 52.2612 25.346 51.955 25.0771 51.1306C25.0576 51.0708 25.0291 51.0031 24.9907 50.927C24.9373 50.8214 24.8901 50.7021 24.8484 50.5716C24.5368 49.5979 25.8939 49.3391 26.3548 50.2517C26.6874 50.9103 27.1814 51.5169 27.7041 52.0351C28.3553 52.6809 29.3356 51.9896 29.1705 51.0874C29.1412 50.9276 29.112 50.7615 29.083 50.5893C28.9457 49.7739 28.9178 48.7533 28.9384 47.8114C28.9486 47.3484 29.777 47.2247 30.106 47.5505C30.7881 48.2258 31.1291 47.8881 32.4932 45.8623C33.125 44.924 33.33 43.2616 33.3466 41.7003C33.3568 40.7459 34.2536 40.4314 34.6522 41.2986C34.7267 41.4607 34.8028 41.6313 34.8804 41.8105C35.9035 44.174 33.8573 45.8623 35.2214 47.5505C36.3127 48.9011 38.177 45.6372 38.9727 43.8364C38.518 45.2996 37.6768 48.4959 37.9496 49.5764C38.1047 50.1906 38.7814 49.8155 39.5036 49.1707C40.1465 48.5968 41.092 48.9077 41.0087 49.7654C40.9166 50.7138 40.7179 51.907 40.3368 53.2905C39.7163 55.5432 37.3577 57.6794 35.4606 59.0224C34.8032 59.4877 34.9395 60.2062 35.7448 60.1881C36.3229 60.1751 37.0497 60.1325 37.9496 60.0434C41.3599 59.7057 43.7471 57.3422 46.8163 54.3035C48.7688 52.3703 49.7006 48.7433 50.0576 46.2068C50.164 45.4505 49.4738 45.0783 48.9548 45.6387C48.7228 45.8891 48.4639 46.1868 48.1804 46.5376C47.5871 47.2719 47.0341 47.6402 46.5982 47.8054C46.1509 47.9748 45.8364 47.5461 45.8935 47.0713C46.0369 45.8784 46.263 43.9126 46.4753 41.8105C46.7481 39.1093 44.9975 35.0576 44.0881 33.3694C44.2018 33.5945 44.3609 34.4498 44.0881 36.0705C44.0382 36.3669 43.9495 36.6378 43.8337 36.8838C43.5251 37.5397 42.6037 36.7853 42.724 36.0705C43.065 34.0447 42.383 31.3435 41.3599 28.98C40.3368 26.6164 37.6086 24.2529 38.2907 25.6035C38.4494 25.9178 38.4965 26.2968 38.4724 26.6956C38.4158 27.6315 37.2297 27.5117 36.9467 26.6178C36.8375 26.2727 36.7168 25.9283 36.5855 25.6035C35.9035 23.9153 34.5394 23.24 32.8342 21.5518C32.2139 20.9375 31.8991 20.2069 31.7618 19.5187C31.5991 18.704 30.8323 18.2141 30.373 18.9064C29.9156 19.5958 29.4474 20.5663 29.083 21.8894C28.7234 23.1948 28.6139 24.5046 28.6332 25.6583C28.6427 26.2312 28.0389 26.4164 27.7189 25.9411C27.1867 25.1508 26.4167 24.7031 25.6619 24.4648C24.8657 24.2134 24.4172 25.1939 24.8214 25.9246C25.1391 26.499 25.4482 27.1892 25.6727 27.967C26.2184 29.8578 25.6727 32.5816 25.3317 33.7071C24.9907 34.8326 24.1722 36.7459 23.6266 35.3953C22.9445 33.7071 17.8287 30.6683 19.5342 33.7071C21.2398 36.7459 20.5573 37.4212 20.2163 39.7847C19.8753 42.1482 20.5573 43.8364 19.1932 43.8364C19.0626 43.8364 18.9405 43.8074 18.8265 43.7546C17.9248 43.337 16.6718 43.0121 16.4946 43.9899C16.0102 46.6639 16.0349 50.3961 17.8287 54.3035Z" stroke="#F83737" stroke-width="2" stroke-linejoin="round"/>
</svg>
