<svg width="64" height="67" viewBox="0 0 64 67" fill="none" xmlns="http://www.w3.org/2000/svg">
<path d="M52.7911 35.649V64.4623C52.7911 64.8652 52.4645 65.1918 52.0616 65.1918H1.72945C1.32658 65.1918 1 64.8652 1 64.4623V1.72945C1 1.32658 1.32659 1 1.72945 1H42.214M42.214 1L50.9675 10.4829M42.214 1V9.75342C42.214 10.1563 42.5406 10.4829 42.9435 10.4829H50.9675M50.9675 10.4829L39.661 48.0497M50.9675 10.4829L51.2624 9.77112C51.5106 9.17218 52.166 8.85185 52.7911 9.02397V9.02397M39.661 48.0497L40.5924 57.0531C40.6564 57.6724 41.4168 57.932 41.8462 57.4811L48.0497 50.9675M39.661 48.0497L48.0497 50.9675M48.0497 50.9675L59.3055 14.1301M52.7911 9.02397L54.6854 3.81463C55.2581 2.23969 56.968 1.39346 58.5675 1.89332V1.89332C60.2142 2.40791 61.1359 4.15612 60.6301 5.80554L58.9914 11.1489M52.7911 9.02397L58.9914 11.1489M58.9914 11.1489V11.1489C59.6088 11.3905 59.936 12.0667 59.7423 12.7007L59.3055 14.1301M59.3055 14.1301L59.9759 14.3946C61.7008 15.0751 62.6406 16.9415 62.1601 18.7325L58.9914 30.5428" stroke="#F83737" stroke-width="1.80822"/>
<path d="M13.7656 26.166H40.3906" stroke="#F83737" stroke-width="1.80822"/>
<path d="M13.7656 33.8252H40.3906" stroke="#F83737" stroke-width="1.80822"/>
<path d="M14.1309 41.1196H37.4733" stroke="#F83737" stroke-width="1.80822"/>
<mask id="path-5-inside-1_4424_363" fill="white">
<rect x="13.4004" y="12.6714" width="24.8014" height="6.56507" rx="0.729452"/>
</mask>
<rect x="13.4004" y="12.6714" width="24.8014" height="6.56507" rx="0.729452" stroke="#F83737" stroke-width="3.61644" mask="url(#path-5-inside-1_4424_363)"/>
</svg>
