<svg width="64" height="70" viewBox="0 0 64 70" fill="none" xmlns="http://www.w3.org/2000/svg">
<path d="M32 47H2C1.44772 47 1 46.5523 1 46V2C1 1.44772 1.44772 1 2 1H62C62.5523 1 63 1.44772 63 2V46C63 46.5523 62.5523 47 62 47H53.7M12.5 12H45M12.5 20H39.5M12.5 28H30.45" stroke="#F83737" stroke-width="2"/>
<path d="M38.7621 37.7162L40.205 38.348C40.8973 38.6511 41.7014 38.5381 42.2833 38.0559L43.4961 37.0508L44.5573 38.2149L45.2963 37.5412L44.5573 38.2149C45.0664 38.7734 45.847 38.9972 46.5748 38.7934L48.0915 38.3685L48.5874 39.8636C48.8254 40.5809 49.4474 41.1028 50.1952 41.2126L51.7536 41.4414L51.5986 43.0089C51.5242 43.761 51.8802 44.4908 52.5187 44.8953L53.8493 45.7382L53.0701 47.1071C52.6963 47.7639 52.7246 48.5754 53.1434 49.2046L54.0161 50.5158L52.7475 51.4495C52.1388 51.8975 51.8346 52.6503 51.9613 53.3954L52.2253 54.9483L50.6866 55.2852C49.9483 55.4469 49.3642 56.011 49.1769 56.7432L48.7864 58.2691L47.2438 57.9511C46.5035 57.7985 45.7405 58.0762 45.2715 58.669L44.2942 59.9042L43.0142 58.9862C42.4001 58.5457 41.59 58.4891 40.9205 58.8398L39.5253 59.5707L38.7293 58.2115C38.3474 57.5593 37.6305 57.1781 36.8762 57.2262L35.3043 57.3264L35.13 55.7609C35.0464 55.0098 34.5465 54.3699 33.8379 54.107L33.4901 55.0446L33.8379 54.107L32.3611 53.5592L32.8386 52.0582L31.8857 51.7551L32.8386 52.0582C33.0677 51.338 32.8713 50.5501 32.3309 50.0218L31.2046 48.9207L32.2513 47.7437C32.7536 47.1789 32.8946 46.3793 32.6158 45.6768L32.0347 44.2127L33.4697 43.5633C34.1582 43.2516 34.6123 42.5784 34.6433 41.8233L34.7079 40.2495L36.283 40.2398C37.0388 40.2352 37.7274 39.8049 38.0629 39.1276L38.7621 37.7162Z" stroke="#F83737" stroke-width="2"/>
<circle cx="42.5" cy="48.5" r="5.5" stroke="#F83737" stroke-width="2"/>
<path d="M36.0385 58L32.7819 65.4917C32.4562 66.2408 33.1174 67.0432 33.9149 66.8667L36.5609 66.2815C36.974 66.1901 37.4 66.3686 37.6245 66.7273L38.6872 68.4251C39.1099 69.1003 40.1138 69.0344 40.4446 68.3097L42.3068 64.2297C42.4293 63.9614 42.427 63.6526 42.3006 63.386L40.4808 59.5484L44.8921 68.3304C45.2506 69.0441 46.2598 69.0703 46.6548 68.3761L47.8392 66.2948C48.0312 65.9575 48.401 65.7617 48.788 65.7926L51.1435 65.9807C51.9384 66.0442 52.4842 65.1973 52.098 64.4996L48.5 58" stroke="#F83737" stroke-width="2"/>
</svg>
