<svg width="70" height="70" viewBox="0 0 70 70" fill="none" xmlns="http://www.w3.org/2000/svg">
<path d="M14.3424 18.108H44.8394M44.8394 18.108L40.6455 22.6015M44.8394 18.108L54.7509 8.19651M39.5024 31.0692V23.8262L40.6455 22.6015M39.5024 31.0692H47.1267L48.2697 29.9262M39.5024 31.0692H23.8721M60.0879 18.108H68.8558V68.428H5.95574C3.54726 66.8625 -0.0697157 63.8535 1.72424 58.1353M60.0879 18.108L48.2697 29.9262M60.0879 18.108L62.3752 15.8208M1.72424 58.1353C5.79883 51.616 11.5469 52.0359 14.3424 52.4171V2.09711C12.8176 1.33469 9.00544 0.267296 5.95574 2.09711C2.90604 3.92693 2.10484 6.9258 1.72343 8.19651L1.72424 58.1353ZM1.72424 58.1353C1.8081 57.868 1.56472 58.3905 1.72424 58.1353ZM40.6455 22.6015L48.2697 29.9262M54.7509 8.19651L62.3752 15.8208M54.7509 8.19651L58.563 4.38439M62.3752 15.8208L66.1873 12.0086M58.563 4.38439L60.1059 2.84156C61.3592 1.58826 63.3911 1.58826 64.6444 2.84156L67.7301 5.92722C68.9834 7.18051 68.9834 9.21251 67.7301 10.4658L66.1873 12.0086M58.563 4.38439L66.1873 12.0086M18.1539 31.0692H23.8721M23.8721 31.0692V45.9365M23.8721 63.8535V45.9365M23.8721 45.9365H37.977M28.8279 57.3729H37.977M37.977 57.3729H53.2255V37.9311V45.9365H37.977M37.977 57.3729V45.9365" stroke="#F83737" stroke-width="2"/>
</svg>
