<svg width="22" height="13" viewBox="0 0 22 13" fill="none" xmlns="http://www.w3.org/2000/svg">
<path fill-rule="evenodd" clip-rule="evenodd" d="M12.8042 1.05528V5.42518C12.7992 5.49737 12.8124 5.56964 12.8427 5.63605C12.873 5.70245 12.9195 5.76111 12.9784 5.80712C13.0373 5.85313 13.1069 5.88516 13.1814 5.90064C13.256 5.91612 13.3334 5.91459 13.4072 5.89614C13.8319 5.86796 14.7916 2.13934 15.2177 1.32626C15.4439 0.867808 15.8072 0.482449 16.2625 0.21802C16.4059 0.0948772 16.5889 0.0211322 16.782 0.00870536H20.856C20.966 0.0262524 21.0695 0.0700583 21.1566 0.135965C21.2438 0.201871 21.3117 0.287693 21.3542 0.385407C21.3967 0.48312 21.4123 0.589487 21.3994 0.694465C21.3865 0.799444 21.3457 0.89963 21.2807 0.985508C20.9622 1.65636 18.2301 5.82904 18.0886 5.99809C17.9181 6.21624 17.8033 6.46888 17.7531 6.7361C17.8087 7.0519 17.9625 7.34473 18.1947 7.57729C18.4779 7.88051 20.7654 10.2607 20.9792 10.4687C21.1807 10.688 21.3153 10.9551 21.3685 11.2415C21.3175 11.4857 21.1744 11.7038 20.9659 11.8552C20.7575 12.0066 20.498 12.0808 20.236 12.064C19.3499 12.064 17.1698 12.064 16.9207 12.064C16.4227 11.8988 15.9646 11.6411 15.5731 11.3059C15.2546 11.0375 14.074 9.76027 13.897 9.59256C13.8371 9.52429 13.7606 9.47086 13.674 9.43696C13.5874 9.40306 13.4934 9.38968 13.4001 9.39798C13.1878 9.39798 12.7843 9.41814 12.8027 10.1829C12.8533 10.7127 12.7361 11.2448 12.4659 11.7111C12.3277 11.8367 12.1638 11.9343 11.9844 11.9977C11.805 12.0612 11.6138 12.0892 11.4226 12.0801C9.97461 12.1633 8.53463 11.8228 7.29757 11.1047C5.06944 9.79383 2.5327 6.29059 1.3521 4.0553C0.647887 2.94552 0.21277 1.70132 0.078125 0.412595C0.148904 0.176453 0.148836 0.0100975 0.397979 0.0100975C0.647122 0.0100975 3.77986 0.0100975 4.07855 0.0100975C4.28564 0.106837 4.45838 0.258864 4.57544 0.44748C4.68161 0.581652 5.49127 2.87863 5.73899 3.28248C5.98672 3.68634 7.20834 5.89884 7.87084 5.89884C8.09081 5.8579 8.2848 5.73623 8.41049 5.5603C8.53619 5.38436 8.58339 5.16842 8.54182 4.95962C8.54182 4.42294 8.54182 2.30439 8.54182 2.0347C8.27254 1.43978 7.77896 0.961393 7.15743 0.692991C7.31221 0.498124 7.50964 0.337252 7.73614 0.22146C7.96264 0.105667 8.21286 0.0376918 8.46968 0.0221356C9.31903 -0.0114072 11.4495 -0.0114249 11.9095 0.054319C12.1565 0.0999677 12.3796 0.224022 12.5422 0.405961C12.7049 0.587901 12.7973 0.816916 12.8042 1.05528Z" fill="#3D3F43"/>
</svg>
