<svg width="22" height="18" viewBox="0 0 22 18" fill="none" xmlns="http://www.w3.org/2000/svg">
<path fill-rule="evenodd" clip-rule="evenodd" d="M15.6539 17.6937H5.74484C4.18126 17.632 2.70729 16.9852 1.64592 15.8952C0.584542 14.8052 0.022325 13.3609 0.0825029 11.8788V6.06511C0.023086 4.58326 0.58561 3.13942 1.64687 2.0498C2.70813 0.960188 4.18165 0.313574 5.74484 0.251465H15.6539C17.2174 0.31357 18.6911 0.960386 19.7524 2.05029C20.8137 3.1402 21.3761 4.58434 21.3163 6.06642V11.8801C21.3761 13.362 20.8137 14.806 19.7523 15.8957C18.691 16.9854 17.2173 17.632 15.6539 17.6937ZM18.4851 5.96045C18.5284 5.20579 18.2551 4.46553 17.7247 3.90121C17.1943 3.33688 16.4498 2.99433 15.6539 2.94832H5.74484C4.94893 2.99433 4.2045 3.33688 3.67408 3.90121C3.14366 4.46553 2.87032 5.20579 2.91367 5.96045V11.9834C2.87032 12.7381 3.14366 13.4783 3.67408 14.0427C4.2045 14.607 4.94893 14.9495 5.74484 14.9955H15.6539C16.4498 14.9495 17.1943 14.607 17.7247 14.0427C18.2551 13.4783 18.5284 12.7381 18.4851 11.9834V5.96045ZM8.57601 5.60087L14.2383 8.97259L8.57601 12.3416V5.60087Z" fill="#3D3F43"/>
</svg>
