<svg width="46" height="46" viewBox="0 0 46 46" fill="none" xmlns="http://www.w3.org/2000/svg">
<path d="M29.6684 26.1689C32.0684 22.9689 32.6684 19.6691 32.6684 17.6689C32.6684 15.1496 31.1684 13.6689 30.1684 13.1691C29.835 12.8358 28.6684 12.7691 26.6684 15.1691C24.6684 17.5691 24.835 18.3356 25.1684 18.6689L26.6684 19.6691C27.0017 20.3358 27.2684 22.6689 25.6684 24.6689C24.0684 26.6689 21.6682 27.6689 20.6684 27.1691L19.6684 25.6691C18.6682 24.6689 17.6682 25.1691 15.6682 27.1691C13.6682 29.1691 12.168 33.1691 19.1683 33.1691C22.668 33.1691 27.2684 29.3689 29.6684 26.1689Z" stroke="#F83737" stroke-width="2" stroke-linejoin="round"/>
<path d="M12 11L19.3571 19.3333M19.3571 19.3333L14.5 18.5M19.3571 19.3333L19 14.5" stroke="#F83737" stroke-width="2"/>
<circle cx="23" cy="23" r="22" stroke="#F83737" stroke-width="2"/>
</svg>
