<svg width="70" height="59" viewBox="0 0 70 59" fill="none" xmlns="http://www.w3.org/2000/svg">
<circle cx="55.284" cy="44.2842" r="13.7156" stroke="#F83737" stroke-width="2"/>
<path d="M48.7422 44.0799L54.4976 49.1895L61.8228 41.0142" stroke="#F83737" stroke-width="2" stroke-linecap="round"/>
<path d="M15.8383 24.8269C19.1357 23.9276 26.9895 20.87 32.0255 15.834C37.0615 10.798 40.1191 4.14324 41.0184 1.44537C42.6671 1.29549 46.0544 1.98494 46.4141 5.94182C46.7739 9.89869 45.0652 14.7849 44.1659 16.7333L41.9177 21.6794C41.7678 21.9792 42.0076 22.5787 44.1659 22.5787C46.3242 22.5787 51.0605 22.5787 53.1588 22.5787C53.9082 22.8785 56.2164 23.478 55.8567 27.0752M41.0184 57.2013C38.1407 58.2805 34.8733 57.8009 32.9248 57.651C31.426 57.3512 27.619 56.2121 24.3816 54.0538C21.1441 51.8955 17.0374 51.6557 15.3887 51.8056" stroke="#F83737" stroke-width="2"/>
<rect x="2" y="23.1292" width="13.2879" height="30.3744" rx="2.59716" stroke="#F83737" stroke-width="2"/>
</svg>
