<svg width="61" height="60" viewBox="0 0 61 60" fill="none" xmlns="http://www.w3.org/2000/svg">
<path d="M21.1324 53H2.81818C1.81402 53 1 52.186 1 51.1818V6.81818C1 5.81403 1.81403 5 2.81818 5L28.75 5M38 24.2V14.6M28.75 5V12.7818C28.75 13.786 29.564 14.6 30.5682 14.6H38M28.75 5L38 14.6" stroke="#F83737" stroke-width="2" stroke-linecap="round"/>
<path d="M13 18H26" stroke="#F83737" stroke-width="2" stroke-linecap="round"/>
<path d="M13 28H26" stroke="#F83737" stroke-width="2" stroke-linecap="round"/>
<path d="M13 38H23" stroke="#F83737" stroke-width="2" stroke-linecap="round"/>
<circle cx="41" cy="45" r="14" stroke="#F83737" stroke-width="2"/>
<path d="M38.2308 53V38H44.2308C45.1538 38 47 38.9677 47 41.3871C47 43.8065 45.6154 45.2581 44.2308 45.2581H35M35 48.6452H42.8462" stroke="#F83737" stroke-width="2"/>
</svg>
