<svg width="83" height="41" viewBox="0 0 83 41" fill="none" xmlns="http://www.w3.org/2000/svg">
<path d="M4.3336 18.5977L4.13364 18.032H4.13364L4.3336 18.5977ZM24.8494 2.7089L24.3977 2.31397L24.8494 2.7089ZM3.29714 34.5069L3.29338 35.1069L3.29714 34.5069ZM21.7144 34.6223L21.7107 35.2223L21.7144 34.6223ZM19.5361 32.8973L18.9734 33.1056L19.5361 32.8973ZM57.4118 33.0427L56.8449 32.8462L57.4118 33.0427ZM55.1827 34.832L55.179 35.432L55.1827 34.832ZM81.9702 32.958L82.5701 32.9492L81.9702 32.958ZM79.9578 34.9872L79.9541 35.5872L79.9578 34.9872ZM73.8247 34.9488L73.8284 34.3488L73.8247 34.9488ZM71.6184 33.1318L71.0491 33.3211L71.6184 33.1318ZM13.4261 15.3836L13.6261 15.9493L13.4261 15.3836ZM14.2652 14.8144L13.8135 14.4195L14.2652 14.8144ZM81.5319 2.97077L82.1318 2.962L81.5319 2.97077ZM2.98747 34.505L2.98371 35.105L2.98747 34.505ZM0.4 23.3119V32.505H1.6V23.3119H0.4ZM4.13364 18.032C1.89602 18.823 0.4 20.9386 0.4 23.3119H1.6C1.6 21.4471 2.77544 19.7849 4.53357 19.1634L4.13364 18.032ZM13.2261 14.8179L4.13364 18.032L4.53357 19.1634L13.6261 15.9493L13.2261 14.8179ZM24.3977 2.31397L13.8135 14.4195L14.7169 15.2093L25.3011 3.10384L24.3977 2.31397ZM28.6135 0.4C26.998 0.4 25.4611 1.09773 24.3977 2.31397L25.3011 3.10384C26.1366 2.14821 27.3442 1.6 28.6135 1.6V0.4ZM79.5321 0.4H28.6135V1.6H79.5321V0.4ZM82.5701 32.9492L82.1318 2.962L80.9319 2.97954L81.3702 32.9668L82.5701 32.9492ZM73.8209 35.5488L79.9541 35.5872L79.9616 34.3872L73.8284 34.3488L73.8209 35.5488ZM72.1878 32.9425C71.1172 29.723 68.0807 27.4 64.5 27.4V28.6C67.5485 28.6 70.1367 30.5774 71.0491 33.3211L72.1878 32.9425ZM64.5 27.4C60.9551 27.4 57.9435 29.6769 56.8449 32.8462L57.9787 33.2392C58.9151 30.538 61.482 28.6 64.5 28.6V27.4ZM21.7107 35.2223L55.179 35.432L55.1865 34.232L21.7182 34.0223L21.7107 35.2223ZM20.0988 32.6891C18.9565 29.6021 15.9862 27.4 12.5 27.4V28.6C15.4679 28.6 17.9997 30.4742 18.9734 33.1056L20.0988 32.6891ZM12.5 27.4C9.04968 27.4 6.10465 29.557 4.93704 32.5941L6.05712 33.0247C7.05245 30.4358 9.56259 28.6 12.5 28.6V27.4ZM2.98371 35.105L3.29338 35.1069L3.3009 33.9069L2.99123 33.905L2.98371 35.105ZM4.93704 32.5941C4.63372 33.383 3.98425 33.9112 3.3009 33.9069L3.29338 35.1069C4.62818 35.1153 5.63621 34.1195 6.05712 33.0247L4.93704 32.5941ZM21.7182 34.0223C21.0349 34.018 20.3921 33.4818 20.0988 32.6891L18.9734 33.1056C19.3805 34.2056 20.3759 35.2139 21.7107 35.2223L21.7182 34.0223ZM56.8449 32.8462C56.5581 33.6735 55.8919 34.2364 55.1865 34.232L55.179 35.432C56.5583 35.4406 57.5827 34.3816 57.9787 33.2392L56.8449 32.8462ZM81.3702 32.9668C81.3817 33.7513 80.7462 34.3921 79.9616 34.3872L79.9541 35.5872C81.4112 35.5963 82.5914 34.4063 82.5701 32.9492L81.3702 32.9668ZM73.8284 34.3488C73.1231 34.3444 72.4641 33.7733 72.1878 32.9425L71.0491 33.3211C71.4306 34.4685 72.4416 35.5401 73.8209 35.5488L73.8284 34.3488ZM13.6261 15.9493C14.0472 15.8005 14.4229 15.5456 14.7169 15.2093L13.8135 14.4195C13.6552 14.6005 13.4529 14.7378 13.2261 14.8179L13.6261 15.9493ZM79.5321 1.6C80.2973 1.6 80.9208 2.2144 80.9319 2.97954L82.1318 2.962C82.111 1.54103 80.9532 0.4 79.5321 0.4V1.6ZM0.4 32.505C0.4 33.9346 1.55416 35.096 2.98371 35.105L2.99123 33.905C2.22147 33.9002 1.6 33.2748 1.6 32.505H0.4Z" fill="white"/>
<path d="M28.805 24.455L44.6965 15.2547C45.4683 14.8078 45.8276 13.8873 45.9442 13.0032C46.1457 11.4746 47.1272 9.43638 50 7.99999C52.3192 6.84037 54.1902 6.85737 55.5155 7.27132C56.6964 7.64015 56.5261 9.06807 55.4576 9.69141L53.1917 11.0132C52.2517 11.5615 51.9226 12.7607 52.4511 13.712L53.0081 14.7146C53.5525 15.6945 54.7959 16.0357 55.7642 15.4709L57.5804 14.4114C58.7661 13.7198 60.2428 14.4351 59.9985 15.7858C59.7144 17.3572 58.8948 19.0526 57 20C54.4283 21.2858 51.6843 20.9355 50.0139 20.4023C49.3652 20.1952 48.6461 20.2104 48.0608 20.5584L32.1678 30.0083C31.2386 30.5608 30.0386 30.275 29.4583 29.363L28.1197 27.2596C27.5091 26.3 27.8206 25.0249 28.805 24.455Z" stroke="white" stroke-width="1.2" stroke-linejoin="round"/>
<circle cx="12.5" cy="35.5" r="4.9" stroke="white" stroke-width="1.2"/>
<circle cx="64.5" cy="35.5" r="4.9" stroke="white" stroke-width="1.2"/>
</svg>
