<svg width="60" height="59" viewBox="0 0 60 59" fill="none" xmlns="http://www.w3.org/2000/svg">
<path d="M58 43.9259H43.6116V58H1V13H29.5H32.5M58 43.9259L43.9806 58M58 43.9259V16" stroke="white" stroke-width="1.2" stroke-linejoin="round"/>
<path d="M26.589 21H22.6712M22.6712 21H7V35M22.6712 21V35.7368H19.2877H24.4521M7 35V49H24.4521M7 35H12.1644M31.3973 49H33V35H30.6849" stroke="white" stroke-width="1.2" stroke-linejoin="round"/>
<path d="M30.7035 21.3636L50.7093 1.90909L51.6105 1L59 7.90909L38.4535 28.6364M30.7035 21.3636L28 31L33.2267 29.8182L38.4535 28.6364M30.7035 21.3636L38.4535 28.6364" stroke="white" stroke-width="1.2" stroke-linejoin="round"/>
</svg>
