<svg width="64" height="49" viewBox="0 0 64 49" fill="none" xmlns="http://www.w3.org/2000/svg">
<path d="M32 48V11.1375C31.1292 8.07977 25.9393 4.10467 21.8989 2.47389C17.8584 0.843103 10.927 0.888403 7.96629 1.1149L7.83705 8.07977M32 48C30.9551 45.6784 27.0539 40.5595 19.809 38.657C12.564 36.7544 8.43071 37.8642 7.26966 38.657L7.83705 8.07977M32 48C20.436 41.7487 6.51498 45.3953 1 48V8.07977H7.83705" stroke="white" stroke-width="1.2" stroke-linejoin="round"/>
<path d="M32 48V11.1375C32.5225 7.74002 38.0607 4.10467 42.1011 2.47389C46.1416 0.843103 53.073 0.888403 56.0337 1.1149L56.1629 8.07977M32 48C33.0449 45.6784 36.9461 40.5595 44.191 38.657C51.436 36.7544 55.5693 37.8642 56.7303 38.657L56.1629 8.07977M32 48C43.564 41.7487 57.485 45.3953 63 48V8.07977H56.1629" stroke="white" stroke-width="1.2" stroke-linejoin="round"/>
</svg>
