<svg width="66" height="66" viewBox="0 0 66 66" fill="none" xmlns="http://www.w3.org/2000/svg">
<path d="M13.4633 44.9291L35.1373 24.1511C35.7771 23.5377 35.9184 22.5768 35.7113 21.715C35.0904 19.1319 35.4534 14.7665 40.2094 10.738C44.4184 7.17271 48.2029 6.96874 50.6324 7.63655C51.8173 7.96224 51.9402 9.39226 51.056 10.2456L45.6618 15.451C44.884 16.2016 44.8433 17.4342 45.5698 18.2345L48.7793 21.7698C49.5378 22.6053 50.8369 22.6482 51.6489 21.8646L56.6088 17.0782C57.6008 16.121 59.2142 16.4516 59.4892 17.8023C60.1097 20.8507 59.9139 25.0348 56.4892 27.9356C52.4447 31.3615 47.295 31.6476 44.4223 31.2749C43.7405 31.1864 43.0375 31.3731 42.5468 31.8547L21.1495 52.8534C19.0051 54.9579 15.5713 54.9608 13.4234 52.8598C11.1944 50.6795 11.2124 47.0869 13.4633 44.9291Z" stroke="white" stroke-width="1.2" stroke-linejoin="round"/>
<path d="M19.2129 30.7296C17.1775 31.8997 11.8191 32.8505 6.66837 27.2928C2.91887 23.2471 2.54624 19.4754 3.10498 17.0185C3.37747 15.8203 4.80058 15.6337 5.69249 16.479L11.1334 21.6356C11.9179 22.3791 13.1512 22.3648 13.9183 21.6033L17.3068 18.2392C18.1077 17.4442 18.0926 16.1445 17.2735 15.3682L12.2706 10.6268C11.2701 9.67854 11.5283 8.05198 12.8655 7.71703C15.8831 6.96113 20.0717 6.97002 23.1225 10.2618C26.7255 14.1495 27.241 19.2813 26.9969 22.1677C26.9389 22.8528 27.1568 23.5468 27.6598 24.0155L30.1887 26.3722M35.001 46L42.1107 52.6498C44.3232 54.7191 47.8047 54.5639 49.8243 52.3059V52.3059C51.8605 50.0293 51.6048 46.5184 49.2602 44.5609L42.001 38.5" stroke="white" stroke-width="1.2" stroke-linejoin="round"/>
</svg>
