<svg width="41" height="57" viewBox="0 0 41 57" fill="none" xmlns="http://www.w3.org/2000/svg">
<mask id="path-1-inside-1_4380_362" fill="white">
<path fill-rule="evenodd" clip-rule="evenodd" d="M27.3496 41.696C27.3496 40.7359 27.9509 39.888 28.8198 39.4798C35.788 36.2062 40.625 29.021 40.625 20.6836C40.625 9.26038 31.5448 0 20.3438 0C9.14272 0 0.0625 9.26038 0.0625 20.6836C0.0625 28.7059 4.54079 35.6615 11.0869 39.092C11.9849 39.5627 12.5996 40.465 12.5996 41.4788C12.5996 42.8712 13.7283 43.9999 15.1206 43.9999H25.0457C26.3181 43.9999 27.3496 42.9684 27.3496 41.696Z"/>
</mask>
<path d="M28.8198 39.4798L29.3301 40.5659L28.8198 39.4798ZM39.425 20.6836C39.425 28.5485 34.8635 35.3147 28.3096 38.3937L29.3301 40.5659C36.7126 37.0977 41.825 29.4935 41.825 20.6836H39.425ZM20.3438 1.2C30.8599 1.2 39.425 9.90078 39.425 20.6836H41.825C41.825 8.61997 32.2296 -1.2 20.3438 -1.2V1.2ZM1.2625 20.6836C1.2625 9.90078 9.82758 1.2 20.3438 1.2V-1.2C8.45787 -1.2 -1.1375 8.61997 -1.1375 20.6836H1.2625ZM11.6439 38.0292C5.4855 34.8018 1.2625 28.2511 1.2625 20.6836H-1.1375C-1.1375 29.1607 3.59608 36.5212 10.5299 40.1549L11.6439 38.0292ZM15.1206 45.1999H25.0457V42.7999H15.1206V45.1999ZM11.3996 41.4788C11.3996 43.5339 13.0656 45.1999 15.1206 45.1999V42.7999C14.391 42.7999 13.7996 42.2084 13.7996 41.4788H11.3996ZM10.5299 40.1549C11.0836 40.4451 11.3996 40.9661 11.3996 41.4788H13.7996C13.7996 39.9639 12.8862 38.6802 11.6439 38.0292L10.5299 40.1549ZM25.0457 45.1999C26.9809 45.1999 28.5496 43.6311 28.5496 41.696H26.1496C26.1496 42.3056 25.6554 42.7999 25.0457 42.7999V45.1999ZM28.3096 38.3937C27.07 38.976 26.1496 40.2177 26.1496 41.696H28.5496C28.5496 41.2542 28.8318 40.8 29.3301 40.5659L28.3096 38.3937Z" fill="white" mask="url(#path-1-inside-1_4380_362)"/>
<path d="M17.0361 43V18.1199C16.844 16.0467 13.3789 14.8809 12.2459 17.5544C11.2874 19.8165 13.0118 22.0781 19.5271 22.0781C26.2361 22.0781 27.5725 20.2512 26.8076 17.7431C26.2328 15.8583 22.209 15.6698 22.209 18.1199C22.209 19.2177 22.2734 35.1464 22.4011 43" stroke="white" stroke-width="1.2" stroke-linejoin="round"/>
<rect x="11.6" y="43.6" width="16.8" height="2.8" rx="1.4" stroke="white" stroke-width="1.2"/>
<rect x="11.6" y="46.6" width="16.8" height="2.8" rx="1.4" stroke="white" stroke-width="1.2"/>
<rect x="11.6" y="49.6" width="16.8" height="2.8" rx="1.4" stroke="white" stroke-width="1.2"/>
<path d="M15.6406 52.6C15.9332 54.7462 17.7735 56.4 20 56.4C22.2265 56.4 24.0668 54.7462 24.3594 52.6H15.6406Z" stroke="white" stroke-width="1.2"/>
</svg>
