<svg width="67" height="68" viewBox="0 0 67 68" fill="none" xmlns="http://www.w3.org/2000/svg">
<path d="M21 20.7L34.5 6.5L61 32.5L47 45.5M21 20.7L18.2704 23.5661C16.4369 25.4913 16.4305 28.5147 18.256 30.4475L21.4311 33.8094C22.5722 35.0177 22.5136 36.9234 21.3003 38.0593L20.2955 39M21 20.7L47 45.5M47 45.5L43.2746 48.4271C41.3774 49.9177 38.6865 49.841 36.8774 48.2447L33.8375 45.5625C32.5613 44.4364 30.605 44.5964 29.5287 45.9149L28.5 47.175M20.2955 39L4.04527 54.2129C1.8815 56.2386 1.94486 59.6912 4.18149 61.6361L7.60766 64.6154C9.73746 66.4674 12.977 66.1906 14.7619 64.0042L28.5 47.175M20.2955 39L28.5 47.175M20.2955 47.175L9.5 58" stroke="white" stroke-width="1.2"/>
<path d="M40.5 5L44.5 1" stroke="white" stroke-width="1.2"/>
<path d="M62 27.5L66 23.5" stroke="white" stroke-width="1.2"/>
<path d="M58 20.5L65 13.5" stroke="white" stroke-width="1.2"/>
<path d="M46 10.5L53 3.5" stroke="white" stroke-width="1.2"/>
<path d="M52 15.5L61 6.5" stroke="white" stroke-width="1.2"/>
</svg>
