<svg width="57" height="56" viewBox="0 0 57 56" fill="none" xmlns="http://www.w3.org/2000/svg">
<path d="M11 23.0229L24.2176 2.25242C24.7116 1.47614 25.5435 0.932259 26.4516 1.08029C28.1991 1.36514 30.3911 2.47866 31 5.52294C31.4973 8.00945 30.3459 11.6552 28.963 14.7788C28.0145 16.921 29.5064 19.5229 31.8492 19.5229H52.5C54.1569 19.5229 55.5 20.8661 55.5 22.5229V26.5229C55.5 27.9037 54.3807 29.0229 53 29.0229V29.0229M39 29.0229H53M53 29.0229V35.5229C53 36.9037 51.8807 38.0229 50.5 38.0229V38.0229M37.5 38.0229H50.5M50.5 38.0229V43.0229C50.5 44.4037 49.3807 45.5229 48 45.5229V45.5229M37.5 45.5229H48M48 45.5229V51.5229C48 53.1798 46.6569 54.5229 45 54.5229H27.0165C26.6747 54.5229 26.3354 54.4645 26.0133 54.3502L12.9968 49.7315C11.7998 49.3067 11 48.1743 11 46.9042V33.5229V50.5229C11 52.1798 9.65685 53.5229 8 53.5229H4C2.34315 53.5229 1 52.1798 1 50.5229V22.523C1 20.8661 2.34315 19.5229 4 19.5229H8C9.65685 19.5229 11 20.8661 11 22.5229V29.0229" stroke="white" stroke-width="1.2"/>
</svg>
