<svg width="51" height="38" viewBox="0 0 51 38" fill="none" xmlns="http://www.w3.org/2000/svg">
<path d="M4.70588 25.1364C1.98732 26.937 1.1384 30.939 1.01618 33.1683C0.997108 33.5161 1.17744 33.8394 1.48755 33.9979C3.72543 35.142 9.47862 37 18.2941 37C26.9431 37 32.8694 35.4351 35.3396 34.4305C35.7395 34.2679 35.9603 33.8486 35.8836 33.4238C35.5044 31.3231 34.5824 27.8188 33.1176 26.3636C31.635 24.8907 26.7048 22.4232 23.7328 21.0501C23.2314 20.8184 23.0064 20.2276 23.232 19.7233L24.4357 17.0325C24.4589 16.9806 24.4864 16.9312 24.5177 16.8838C25.0845 16.0278 26.2091 14.1364 26.5294 12.8636C26.7584 11.9537 26.4701 11.2545 26.1347 10.8212C25.9095 10.5302 25.7291 10.1816 25.7442 9.81392C25.8135 8.12172 25.6358 5.19098 24.4706 3.45455C23.1529 1.49091 19.8039 1 18.2941 1C16.9216 1 13.7647 1.57273 12.1176 3.86364C10.696 5.84105 10.8082 8.36708 11.1304 9.81064C11.2133 10.1822 11.1181 10.5803 10.9369 10.9151C10.7004 11.3525 10.4706 12.0167 10.4706 12.8636C10.4706 14.1225 11.4859 15.7344 12.0521 16.4626C12.0954 16.5183 12.1337 16.5773 12.1654 16.6403L13.6667 19.6235C13.9373 20.1612 13.6757 20.8147 13.1141 21.0312C10.8805 21.8924 7.21372 23.4753 4.70588 25.1364Z" stroke="#F83737" stroke-width="1.2" stroke-linecap="round"/>
<path d="M30 4.07052C31.402 3.82995 34.5882 4.07052 36.1176 6.95735C37.6068 9.76828 37.0418 12.8073 36.5404 14.0756C36.5142 14.142 36.4795 14.2036 36.4379 14.2617C36.1594 14.6505 35.6361 15.3506 35.3529 15.6178C35.3176 15.6511 35.2819 15.688 35.2463 15.7275C34.8331 16.1854 35.1181 16.8794 35.6956 17.0958C37.6248 17.8183 40.3327 18.9973 41.0882 19.948C42.0059 21.1028 42.7451 23.7972 43 25" stroke="#F83737" stroke-width="1.2" stroke-linecap="round"/>
<path d="M39 3.0638C40.1863 2.84615 42.8824 3.0638 44.1765 5.6757C45.434 8.21378 44.9604 10.9574 44.5368 12.109C44.513 12.1736 44.4811 12.2342 44.4428 12.2914C44.206 12.6445 43.7674 13.2712 43.5294 13.5113C43.5165 13.5244 43.5035 13.5381 43.4904 13.5523C43.0865 13.9924 43.3747 14.6684 43.9284 14.8924C45.5521 15.5493 47.7572 16.588 48.3824 17.4292C49.1588 18.4739 49.7843 20.9117 50 22" stroke="#F83737" stroke-width="1.2" stroke-linecap="round"/>
</svg>
