<svg width="42" height="37" viewBox="0 0 42 37" fill="none" xmlns="http://www.w3.org/2000/svg">
<path d="M11.36 32.1128L11.6368 32.6451L11.36 32.1128ZM2.16095 34.8879L1.61266 34.6442L2.16095 34.8879ZM3.53611 36.1812L3.2593 35.6489L3.53611 36.1812ZM3.95933 29.1013L3.53688 29.5274L3.95933 29.1013ZM4.20515 30.2884L4.75343 30.5321L4.20515 30.2884ZM1.6 17C1.6 11.8085 5.80852 7.6 11 7.6V6.4C5.14578 6.4 0.4 11.1458 0.4 17H1.6ZM1.6 22V17H0.4V22H1.6ZM4.38179 28.6753C2.66325 26.9713 1.6 24.6104 1.6 22H0.4C0.4 24.9433 1.60041 27.6074 3.53688 29.5274L4.38179 28.6753ZM2.70924 35.1315L4.75343 30.5321L3.65686 30.0447L1.61266 34.6442L2.70924 35.1315ZM11.0832 31.5805L3.2593 35.6489L3.81292 36.7136L11.6368 32.6451L11.0832 31.5805ZM24 31.4H11.8214V32.6H24V31.4ZM33.4 22C33.4 27.1915 29.1915 31.4 24 31.4V32.6C29.8542 32.6 34.6 27.8542 34.6 22H33.4ZM33.4 17V22H34.6V17H33.4ZM24 7.6C29.1915 7.6 33.4 11.8085 33.4 17H34.6C34.6 11.1458 29.8542 6.4 24 6.4V7.6ZM11 7.6H24V6.4H11V7.6ZM11.6368 32.6451C11.6938 32.6155 11.7571 32.6 11.8214 32.6V31.4C11.5644 31.4 11.3112 31.4619 11.0832 31.5805L11.6368 32.6451ZM1.61266 34.6442C0.997853 36.0275 2.46985 37.412 3.81292 36.7136L3.2593 35.6489C2.92354 35.8235 2.55553 35.4774 2.70924 35.1315L1.61266 34.6442ZM3.53688 29.5274C3.6928 29.682 3.72519 29.891 3.65686 30.0447L4.75343 30.5321C5.04463 29.8769 4.85448 29.144 4.38179 28.6753L3.53688 29.5274Z" fill="#F83737"/>
<path d="M26 1H29C35.6274 1 41 6.37258 41 13V13" stroke="#F83737" stroke-width="1.2" stroke-linecap="round"/>
<circle cx="11" cy="20" r="1" fill="#F83737"/>
<circle cx="18" cy="20" r="1" fill="#F83737"/>
<circle cx="25" cy="20" r="1" fill="#F83737"/>
</svg>
